<?xml version="1.0" encoding="utf-8"?>
<!-- Uploaded to SVGRepo https://www.svgrepo.com -->
<svg version="1.2" baseProfile="tiny" id="Layer_1" xmlns="http://www.w3.org/2000/svg" xmlns:xlink="http://www.w3.org/1999/xlink"
	 x="0px" y="0px" viewBox="0 0 256 256" xml:space="preserve">
<path d="M127.6,124.9v104.8H96.5h-2.8c-0.8,0-1.5-0.5-1.6-1.3C89.8,215.7,78.7,206,65.4,206s-24.4,9.7-26.7,22.4
	c-0.1,0.7-0.8,1.3-1.6,1.3H14.6c-3.9,0-7.1-3.2-7.1-7.1v-97.7H127.6z M232.6,233.3c0,11.2-9.1,20.3-20.3,20.3
	c-11.2,0-20.3-9.1-20.3-20.3c0-11.2,9.1-20.3,20.3-20.3C223.5,213,232.6,222.1,232.6,233.3z M220.1,233.3c0-4.3-3.5-7.8-7.8-7.8
	c-4.3,0-7.8,3.5-7.8,7.8s3.5,7.8,7.8,7.8C216.5,241.1,220.1,237.6,220.1,233.3z M85.7,233.3c0,11.2-9.1,20.3-20.3,20.3
	S45,244.5,45,233.3c0-11.2,9.1-20.3,20.3-20.3S85.7,222.1,85.7,233.3z M73.1,233.3c0-4.3-3.5-7.8-7.8-7.8s-7.8,3.5-7.8,7.8
	s3.5,7.8,7.8,7.8S73.1,237.6,73.1,233.3z M250.9,216.8v5.5c0,4.1-3.3,7.5-7.5,7.5h-2.8c-0.8,0-1.5-0.5-1.6-1.3
	c-2.2-12.7-13.3-22.4-26.7-22.4c-13.4,0-24.4,9.7-26.7,22.4c-0.1,0.7-0.8,1.3-1.6,1.3h-50.1v-85.5h30.7c2.1,0.1,4.2,1,5.7,2.4
	l32.9,35.5c0.3,0.3,0.7,0.5,1.2,0.5h28.8c6.6,0,11.8,5.2,11.8,11.7v20.8h4.3C250.2,215.2,250.9,215.9,250.9,216.8z M188.6,179.9
	l-23.8-26.2c-0.4-0.3-0.8-0.5-1.3-0.5h-19c-0.9,0-1.6,0.7-1.6,1.6v26.3c0,0.9,0.7,1.6,1.6,1.6h42.7
	C188.8,182.7,189.5,181,188.6,179.9z M152.5,60.1l39.9-39.9l-9.1-9l-9.1-9l-30.6,30.5l-30.6,30.5L98.1,48.3
	c-8.2-8.2-15.2-14.9-15.5-14.9s-4.7,4.2-9.8,9.2l-9.3,9.3l24,24c13.2,13.2,24.2,24,24.5,24C112.5,99.9,130.7,82,152.5,60.1
	L152.5,60.1z"/>
</svg>
